<svg width="24" height="25" viewBox="0 0 24 25" fill="none" xmlns="http://www.w3.org/2000/svg">
<path d="M12 2.66711C6.48 2.66711 2 7.14711 2 12.6671C2 18.1871 6.48 22.6671 12 22.6671C17.52 22.6671 22 18.1871 22 12.6671C22 7.14711 17.52 2.66711 12 2.66711ZM16.03 13.1971L13.03 16.1971C12.88 16.3471 12.69 16.4171 12.5 16.4171C12.31 16.4171 12.12 16.3471 11.97 16.1971C11.68 15.9071 11.68 15.4271 11.97 15.1371L13.69 13.4171H8.5C8.09 13.4171 7.75 13.0771 7.75 12.6671C7.75 12.2571 8.09 11.9171 8.5 11.9171H13.69L11.97 10.1971C11.68 9.90711 11.68 9.42711 11.97 9.13711C12.26 8.84711 12.74 8.84711 13.03 9.13711L16.03 12.1371C16.32 12.4271 16.32 12.9071 16.03 13.1971Z" fill="#FF445F"/>
</svg>
