<svg width="25" height="25" viewBox="0 0 25 25" fill="none" xmlns="http://www.w3.org/2000/svg">
<path d="M12.5 1.91711C18.43 1.91711 23.25 6.73711 23.25 12.6671C23.25 18.5971 18.43 23.4171 12.5 23.4171C6.57 23.4171 1.75 18.5971 1.75 12.6671C1.75 6.73711 6.57 1.91711 12.5 1.91711ZM12.5 21.9171C17.6 21.9171 21.75 17.7671 21.75 12.6671C21.75 7.56711 17.6 3.41711 12.5 3.41711C7.4 3.41711 3.25 7.56711 3.25 12.6671C3.25 17.7671 7.4 21.9171 12.5 21.9171Z" fill="#FF445F"/>
<path d="M10 11.9171L16 11.9171C16.41 11.9171 16.75 12.2571 16.75 12.6671C16.75 13.0771 16.41 13.4171 16 13.4171L10 13.4171C9.59 13.4171 9.25 13.0771 9.25 12.6671C9.25 12.2571 9.59 11.9171 10 11.9171Z" fill="#FF445F"/>
<path d="M12 8.91711C12.19 8.91711 12.38 8.98711 12.53 9.13711C12.82 9.42711 12.82 9.90711 12.53 10.1971L10.06 12.6671L12.53 15.1371C12.82 15.4271 12.82 15.9071 12.53 16.1971C12.24 16.4871 11.76 16.4871 11.47 16.1971L8.47 13.1971C8.18 12.9071 8.18 12.4271 8.47 12.1371L11.47 9.13711C11.62 8.98711 11.81 8.91711 12 8.91711Z" fill="#FF445F"/>
</svg>
