<svg width="72" height="78" viewBox="0 0 72 78" fill="none" xmlns="http://www.w3.org/2000/svg">
<path d="M66.502 69.4445H5.498C4.0402 69.4426 2.6428 68.8626 1.6121 67.8318C0.5814 66.801 0.0017 65.4034 0 63.9457V32.3978C0.0017 30.9401 0.5814 29.5425 1.6121 28.5117C2.6428 27.4809 4.0402 26.9009 5.498 26.899H66.502C67.9598 26.9009 69.3572 27.4809 70.3879 28.5117C71.4186 29.5425 71.9983 30.9401 72 32.3978V63.9457C71.9983 65.4034 71.4186 66.801 70.3879 67.8318C69.3572 68.8626 67.9598 69.4426 66.502 69.4445ZM5.498 30.1718C4.9079 30.1725 4.3422 30.4073 3.925 30.8246C3.5079 31.242 3.2733 31.8077 3.2727 32.3978V63.9457C3.2733 64.5358 3.5079 65.1016 3.925 65.5189C4.3422 65.9362 4.9079 66.171 5.498 66.1718H66.502C67.0921 66.171 67.6578 65.9362 68.075 65.5189C68.4921 65.1016 68.7267 64.5358 68.7273 63.9457V32.3978C68.7267 31.8077 68.4921 31.242 68.075 30.8246C67.6578 30.4073 67.0921 30.1725 66.502 30.1718H5.498Z" fill="white"/>
<path d="M23.1049 23.6276C22.8054 23.6273 22.5117 23.5448 22.2558 23.3891C22 23.2334 21.7917 23.0105 21.6538 22.7447C21.5158 22.4789 21.4535 22.1803 21.4735 21.8815C21.4935 21.5826 21.5952 21.295 21.7673 21.05C21.9847 20.7416 22.2164 20.4507 22.4481 20.1614C22.8535 19.7588 23.1753 19.28 23.395 18.7526C23.6146 18.2252 23.7278 17.6595 23.7281 17.0881C23.7283 16.5168 23.6155 15.951 23.3963 15.4234C23.177 14.8958 22.8556 14.4168 22.4505 14.0139C21.1678 12.6209 20.4556 10.7966 20.4553 8.9029C20.455 7.0093 21.1666 5.1848 22.4488 3.7914C22.9527 3.2506 23.3371 2.6097 23.577 1.9105C23.634 1.7022 23.7316 1.5072 23.8644 1.3368C23.9971 1.1664 24.1622 1.0239 24.3502 0.917599C24.5383 0.811299 24.7455 0.743299 24.9599 0.717499C25.1744 0.691699 25.3918 0.708599 25.5997 0.767299C25.8076 0.825899 26.0018 0.9251 26.1712 1.0592C26.3405 1.1933 26.4816 1.3596 26.5864 1.5484C26.6912 1.7373 26.7575 1.9451 26.7816 2.1597C26.8057 2.3744 26.787 2.5917 26.7267 2.7991C26.3768 3.9221 25.7899 4.957 25.0056 5.8337C24.5991 6.234 24.2767 6.7114 24.0573 7.2381C23.838 7.7647 23.726 8.3298 23.7281 8.9003C23.7227 9.4715 23.8331 10.0379 24.0527 10.5652C24.2723 11.0926 24.5965 11.5699 25.0057 11.9685C26.2894 13.3648 27.0016 15.1925 27.0008 17.0893C27.0001 18.986 26.2865 20.8132 25.0017 22.2085C24.8123 22.445 24.6222 22.6799 24.4456 22.9324C24.2943 23.1474 24.0935 23.3228 23.8602 23.4438C23.6268 23.5648 23.3677 23.6278 23.1049 23.6276Z" fill="white"/>
<path d="M47.6496 23.6276C47.3501 23.6273 47.0564 23.5448 46.8005 23.3891C46.5447 23.2334 46.3364 23.0105 46.1985 22.7447C46.0605 22.4789 45.9982 22.1803 46.0182 21.8815C46.0382 21.5826 46.1399 21.295 46.312 21.05C46.5293 20.7416 46.7611 20.4507 46.9927 20.1614C47.3982 19.7588 47.72 19.28 47.9397 18.7526C48.1593 18.2252 48.2725 17.6595 48.2728 17.0881C48.273 16.5168 48.1602 15.951 47.941 15.4234C47.7217 14.8958 47.4003 14.4168 46.9952 14.0139C45.7125 12.6209 45.0003 10.7966 45 8.9029C44.9997 7.0093 45.7113 5.1848 46.9935 3.7914C47.4974 3.2506 47.8818 2.6097 48.1217 1.9105C48.1787 1.7022 48.2763 1.5072 48.409 1.3368C48.5418 1.1664 48.7069 1.0239 48.8949 0.917599C49.083 0.811299 49.2902 0.743299 49.5046 0.717499C49.7191 0.691699 49.9365 0.708599 50.1444 0.767299C50.3523 0.825899 50.5465 0.9251 50.7158 1.0592C50.8852 1.1933 51.0263 1.3596 51.1311 1.5484C51.2359 1.7373 51.3022 1.9451 51.3263 2.1597C51.3504 2.3744 51.3317 2.5917 51.2714 2.7991C50.9215 3.9221 50.3346 4.957 49.5503 5.8337C49.1438 6.234 48.8214 6.7114 48.602 7.2381C48.3826 7.7647 48.2707 8.3298 48.2728 8.9003C48.2674 9.4715 48.3778 10.0379 48.5974 10.5652C48.817 11.0926 49.1412 11.5699 49.5504 11.9685C50.8341 13.3648 51.5463 15.1925 51.5455 17.0893C51.5448 18.986 50.8312 20.8132 49.5464 22.2085C49.357 22.445 49.1669 22.6799 48.9903 22.9324C48.839 23.1474 48.6382 23.3228 48.4049 23.4438C48.1715 23.5648 47.9124 23.6278 47.6496 23.6276Z" fill="white"/>
<path d="M34.5585 23.6276C34.259 23.6273 33.9653 23.5448 33.7095 23.3891C33.4536 23.2334 33.2454 23.0105 33.1074 22.7447C32.9695 22.4789 32.9071 22.1803 32.9271 21.8815C32.9472 21.5826 33.0488 21.295 33.221 21.05C33.4383 20.7416 33.67 20.4507 33.9017 20.1614C34.3071 19.7588 34.6289 19.28 34.8486 18.7526C35.0683 18.2252 35.1815 17.6595 35.1817 17.0881C35.1819 16.5168 35.0692 15.951 34.8499 15.4234C34.6306 14.8958 34.3092 14.4168 33.9041 14.0139C32.6214 12.6209 31.9092 10.7966 31.9089 8.9029C31.9086 7.0093 32.6202 5.1848 33.9025 3.7914C34.4063 3.2506 34.7907 2.6097 35.0306 1.9105C35.0876 1.7022 35.1853 1.5072 35.318 1.3368C35.4507 1.1664 35.6158 1.0239 35.8039 0.917599C35.9919 0.811299 36.1991 0.743299 36.4136 0.717499C36.628 0.691699 36.8455 0.708599 37.0533 0.767299C37.2612 0.825899 37.4554 0.9251 37.6248 1.0592C37.7941 1.1933 37.9353 1.3596 38.04 1.5484C38.1448 1.7373 38.2111 1.9451 38.2352 2.1597C38.2593 2.3744 38.2406 2.5917 38.1803 2.7991C37.8304 3.9221 37.2435 4.957 36.4593 5.8337C36.0528 6.234 35.7304 6.7114 35.511 7.2381C35.2916 7.7647 35.1796 8.3298 35.1817 8.9003C35.1763 9.4715 35.2867 10.0379 35.5063 10.5652C35.7259 11.0926 36.0501 11.5699 36.4593 11.9685C37.7431 13.3648 38.4552 15.1925 38.4545 17.0893C38.4537 18.986 37.7402 20.8132 36.4553 22.2085C36.266 22.445 36.0758 22.6799 35.8992 22.9324C35.748 23.1474 35.5472 23.3228 35.3138 23.4438C35.0804 23.5648 34.8214 23.6278 34.5585 23.6276Z" fill="white"/>
<path d="M31.0917 62.8987C30.8768 62.8988 30.664 62.8565 30.4654 62.7743C30.2668 62.6921 30.0864 62.5715 29.9345 62.4196C29.7825 62.2676 29.662 62.0872 29.5798 61.8886C29.4975 61.6901 29.4553 61.4773 29.4553 61.2624V38.3533C29.4553 37.9193 29.6277 37.5031 29.9346 37.1962C30.2415 36.8893 30.6577 36.7169 31.0917 36.7169C31.5257 36.7169 31.9419 36.8893 32.2488 37.1962C32.5556 37.5031 32.728 37.9193 32.728 38.3533V61.2624C32.7281 61.4773 32.6858 61.6901 32.6036 61.8886C32.5214 62.0872 32.4008 62.2676 32.2489 62.4196C32.0969 62.5715 31.9165 62.6921 31.7179 62.7743C31.5194 62.8565 31.3066 62.8988 31.0917 62.8987Z" fill="white"/>
<path d="M40.9095 62.8987C40.6946 62.8988 40.4818 62.8565 40.2833 62.7743C40.0847 62.6921 39.9043 62.5715 39.7523 62.4196C39.6004 62.2676 39.4798 62.0872 39.3976 61.8886C39.3154 61.6901 39.2731 61.4773 39.2732 61.2624V38.3533C39.2732 37.9193 39.4456 37.5031 39.7525 37.1962C40.0593 36.8893 40.4756 36.7169 40.9095 36.7169C41.3435 36.7169 41.7598 36.8893 42.0666 37.1962C42.3735 37.5031 42.5459 37.9193 42.5459 38.3533V61.2624C42.546 61.4773 42.5037 61.6901 42.4215 61.8886C42.3392 62.0872 42.2187 62.2676 42.0668 62.4196C41.9148 62.5715 41.7344 62.6921 41.5358 62.7743C41.3373 62.8565 41.1245 62.8988 40.9095 62.8987Z" fill="white"/>
<path d="M21.2721 62.8987C21.0572 62.8988 20.8444 62.8565 20.6458 62.7743C20.4473 62.6921 20.2669 62.5715 20.1149 62.4196C19.9629 62.2676 19.8424 62.0872 19.7602 61.8886C19.678 61.6901 19.6357 61.4773 19.6358 61.2624V38.3533C19.6358 37.9193 19.8082 37.5031 20.115 37.1962C20.4219 36.8893 20.8381 36.7169 21.2721 36.7169C21.7061 36.7169 22.1223 36.8893 22.4292 37.1962C22.7361 37.5031 22.9085 37.9193 22.9085 38.3533V61.2624C22.9085 61.4773 22.8663 61.6901 22.784 61.8886C22.7018 62.0872 22.5813 62.2676 22.4293 62.4196C22.2774 62.5715 22.097 62.6921 21.8984 62.7743C21.6998 62.8565 21.487 62.8988 21.2721 62.8987Z" fill="white"/>
<path d="M11.4542 62.8987C11.2393 62.8988 11.0265 62.8565 10.828 62.7743C10.6294 62.6921 10.449 62.5715 10.297 62.4196C10.1451 62.2676 10.0245 62.0872 9.9423 61.8886C9.8601 61.6901 9.8178 61.4773 9.8179 61.2624V38.3533C9.8179 37.9193 9.9903 37.5031 10.2972 37.1962C10.604 36.8893 11.0203 36.7169 11.4542 36.7169C11.8882 36.7169 12.3044 36.8893 12.6113 37.1962C12.9182 37.5031 13.0906 37.9193 13.0906 38.3533V61.2624C13.0907 61.4773 13.0484 61.6901 12.9662 61.8886C12.8839 62.0872 12.7634 62.2676 12.6115 62.4196C12.4595 62.5715 12.2791 62.6921 12.0805 62.7743C11.882 62.8565 11.6691 62.8988 11.4542 62.8987Z" fill="white"/>
<path d="M50.7274 62.8987C50.5125 62.8988 50.2997 62.8565 50.1011 62.7743C49.9026 62.6921 49.7222 62.5715 49.5702 62.4196C49.4183 62.2676 49.2977 62.0872 49.2155 61.8886C49.1333 61.6901 49.091 61.4773 49.0911 61.2624V38.3533C49.0911 37.9193 49.2635 37.5031 49.5703 37.1962C49.8772 36.8893 50.2934 36.7169 50.7274 36.7169C51.1614 36.7169 51.5776 36.8893 51.8845 37.1962C52.1914 37.5031 52.3638 37.9193 52.3638 38.3533V61.2624C52.3638 61.4773 52.3216 61.6901 52.2393 61.8886C52.1571 62.0872 52.0366 62.2676 51.8846 62.4196C51.7327 62.5715 51.5523 62.6921 51.3537 62.7743C51.1551 62.8565 50.9423 62.8988 50.7274 62.8987Z" fill="white"/>
<path d="M60.5453 62.8987C60.3304 62.8988 60.1176 62.8565 59.919 62.7743C59.7205 62.6921 59.5401 62.5715 59.3881 62.4196C59.2361 62.2676 59.1156 62.0872 59.0334 61.8886C58.9512 61.6901 58.9089 61.4773 58.9089 61.2624V38.3533C58.9089 37.9193 59.0813 37.5031 59.3882 37.1962C59.6951 36.8893 60.1113 36.7169 60.5453 36.7169C60.9793 36.7169 61.3955 36.8893 61.7024 37.1962C62.0093 37.5031 62.1817 37.9193 62.1817 38.3533V61.2624C62.1817 61.4773 62.1394 61.6901 62.0572 61.8886C61.975 62.0872 61.8545 62.2676 61.7025 62.4196C61.5506 62.5715 61.3701 62.6921 61.1716 62.7743C60.973 62.8565 60.7602 62.8988 60.5453 62.8987Z" fill="white"/>
<path d="M9.819 77.6285C8.5174 77.6271 7.2696 77.1094 6.3493 76.1891C5.429 75.2688 4.9113 74.0209 4.9099 72.7194V67.8103C4.9098 67.5954 4.9521 67.3826 5.0343 67.184C5.1165 66.9855 5.2371 66.8051 5.389 66.6531C5.541 66.5011 5.7214 66.3806 5.92 66.2984C6.1185 66.2162 6.3313 66.1739 6.5462 66.174H13.0917C13.3066 66.1739 13.5194 66.2162 13.718 66.2984C13.9165 66.3806 14.0969 66.5011 14.2489 66.6531C14.4009 66.8051 14.5214 66.9855 14.6036 67.184C14.6858 67.3826 14.7281 67.5954 14.7281 67.8103V72.7194C14.7266 74.0209 14.209 75.2688 13.2886 76.1891C12.3683 77.1094 11.1205 77.6271 9.819 77.6285ZM8.1826 69.4467V72.7194C8.1826 73.1534 8.355 73.5696 8.6619 73.8765C8.9688 74.1834 9.385 74.3558 9.819 74.3558C10.2529 74.3558 10.6692 74.1834 10.976 73.8765C11.2829 73.5696 11.4553 73.1534 11.4553 72.7194V69.4467H8.1826Z" fill="white"/>
<path d="M62.1823 77.6285C60.8807 77.6271 59.6329 77.1094 58.7126 76.1891C57.7923 75.2688 57.2746 74.0209 57.2732 72.7194V67.8103C57.2731 67.5954 57.3154 67.3826 57.3976 67.184C57.4798 66.9855 57.6004 66.8051 57.7523 66.6531C57.9043 66.5011 58.0847 66.3806 58.2833 66.2984C58.4818 66.2162 58.6946 66.1739 58.9095 66.174H65.455C65.6699 66.1739 65.8827 66.2162 66.0813 66.2984C66.2798 66.3806 66.4603 66.5011 66.6122 66.6531C66.7642 66.8051 66.8847 66.9855 66.9669 67.184C67.0491 67.3826 67.0914 67.5954 67.0914 67.8103V72.7194C67.0899 74.0209 66.5723 75.2688 65.652 76.1891C64.7316 77.1094 63.4838 77.6271 62.1823 77.6285ZM60.5459 69.4467V72.7194C60.5459 73.1534 60.7183 73.5696 61.0252 73.8765C61.3321 74.1834 61.7483 74.3558 62.1823 74.3558C62.6163 74.3558 63.0325 74.1834 63.3394 73.8765C63.6462 73.5696 63.8186 73.1534 63.8186 72.7194V69.4467H60.5459Z" fill="white"/>
</svg>
