<svg width="66" height="76" viewBox="0 0 66 76" fill="none" xmlns="http://www.w3.org/2000/svg">
<path d="M60.4884 0.6671H5.5465C4.2689 0.6991 3.0558 1.2352 2.1719 2.1583C1.288 3.0814 0.805101 4.3166 0.828501 5.5944V70.7398C0.804901 72.0117 1.283 73.2418 2.1595 74.164C3.0359 75.0861 4.2401 75.6261 5.5116 75.6671H60.4535C61.7311 75.6351 62.9442 75.099 63.8281 74.1759C64.712 73.2528 65.1949 72.0176 65.1715 70.7398V5.5944C65.1951 4.3225 64.717 3.0924 63.8405 2.1703C62.9641 1.2481 61.7599 0.7082 60.4884 0.6671ZM4.282 5.5944C4.2555 5.2408 4.3699 4.8911 4.6002 4.6215C4.8306 4.352 5.1582 4.1844 5.5116 4.1555H31.2558V50.3764H4.282V5.5944ZM61.718 70.7398C61.7445 71.0934 61.6301 71.4431 61.3998 71.7127C61.1694 71.9823 60.8418 72.1498 60.4884 72.1787H5.5465C5.1931 72.1498 4.8655 71.9823 4.6351 71.7127C4.4048 71.4431 4.2903 71.0934 4.3169 70.7398V53.8648H61.718V70.7398ZM61.718 50.3764H34.7442V4.1555H60.4884C60.8418 4.1844 61.1694 4.352 61.3998 4.6215C61.6301 4.8911 61.7445 5.2408 61.718 5.5944V50.3764Z" fill="#FF445F"/>
<path d="M26.8954 19.8527C26.4328 19.8527 25.9892 20.0364 25.6621 20.3635C25.335 20.6906 25.1512 21.1343 25.1512 21.5968V35.5503C25.1512 36.0129 25.335 36.4566 25.6621 36.7837C25.9892 37.1108 26.4328 37.2945 26.8954 37.2945C27.358 37.2945 27.8016 37.1108 28.1287 36.7837C28.4558 36.4566 28.6396 36.0129 28.6396 35.5503V21.5968C28.6396 21.1343 28.4558 20.6906 28.1287 20.3635C27.8016 20.0364 27.358 19.8527 26.8954 19.8527Z" fill="#FF445F"/>
<path d="M39.1047 19.8527C38.6421 19.8527 38.1985 20.0364 37.8714 20.3635C37.5443 20.6906 37.3605 21.1343 37.3605 21.5968V35.5503C37.3605 36.0129 37.5443 36.4566 37.8714 36.7837C38.1985 37.1108 38.6421 37.2945 39.1047 37.2945C39.5673 37.2945 40.011 37.1108 40.3381 36.7837C40.6652 36.4566 40.8489 36.0129 40.8489 35.5503V21.5968C40.8489 21.1343 40.6652 20.6906 40.3381 20.3635C40.011 20.0364 39.5673 19.8527 39.1047 19.8527Z" fill="#FF445F"/>
<path d="M58.2907 18.1091H45.2093C44.7467 18.1091 44.303 18.2929 43.9759 18.62C43.6488 18.9471 43.4651 19.3907 43.4651 19.8533V36.4231C43.4651 36.8857 43.6488 37.3293 43.9759 37.6564C44.303 37.9835 44.7467 38.1673 45.2093 38.1673H58.2907C58.7533 38.1673 59.1969 37.9835 59.524 37.6564C59.8511 37.3293 60.0348 36.8857 60.0348 36.4231V19.8533C60.0348 19.3907 59.8511 18.9471 59.524 18.62C59.1969 18.2929 58.7533 18.1091 58.2907 18.1091ZM56.5465 34.6789H46.9535V27.7022H56.5465V34.6789ZM56.5465 24.2138H46.9535V21.5975H56.5465V24.2138Z" fill="#FF445F"/>
<path d="M11.1976 59.9699H55.6743C56.1369 59.9699 56.5806 59.7861 56.9077 59.459C57.2348 59.1319 57.4185 58.6883 57.4185 58.2257C57.4185 57.7631 57.2348 57.3195 56.9077 56.9924C56.5806 56.6653 56.1369 56.4815 55.6743 56.4815H11.1976C10.735 56.4815 10.2914 56.6653 9.9643 56.9924C9.6372 57.3195 9.4534 57.7631 9.4534 58.2257C9.4534 58.6883 9.6372 59.1319 9.9643 59.459C10.2914 59.7861 10.735 59.9699 11.1976 59.9699Z" fill="#FF445F"/>
</svg>
