<svg width="68" height="68" viewBox="0 0 68 68" fill="none" xmlns="http://www.w3.org/2000/svg">
<path d="M55.5 0.917101C56.1904 0.917101 56.75 1.4768 56.75 2.1671V16.9171H62.4941C65.3964 16.9171 67.7498 19.268 67.75 22.1691V25.1652C67.7498 27.6353 66.0481 29.7037 63.75 30.2657V40.6671C63.75 47.7053 58.0376 53.4169 51.0049 53.4171H46.4824C42.538 61.8689 34.0294 67.4171 24.5 67.4171C11.1071 67.4171 0.25 56.56 0.25 43.1671C0.25 42.4768 0.8096 41.9171 1.5 41.9171C2.1904 41.9171 2.75 42.4768 2.75 43.1671C2.75 55.1793 12.4878 64.9171 24.5 64.9171C32.6428 64.9171 39.9524 60.3998 43.6855 53.4171H39.9951C32.9555 53.4169 27.25 47.7094 27.25 40.6671V30.2657C24.9541 29.7031 23.2502 27.6337 23.25 25.1652V22.1691C23.2502 19.2665 25.5998 16.9171 28.5059 16.9171H34.25V2.1671C34.25 1.4768 34.8096 0.917101 35.5 0.917101C36.1904 0.917101 36.75 1.4768 36.75 2.1671V16.9171H54.25V2.1671C54.25 1.4768 54.8096 0.917101 55.5 0.917101ZM29.75 40.6671C29.75 46.329 34.3365 50.9169 39.9951 50.9171H51.0049C56.6569 50.9169 61.25 46.3246 61.25 40.6671V30.4171H29.75V40.6671ZM45.5 35.9171C47.8472 35.9171 49.75 37.8199 49.75 40.1671C49.75 42.5143 47.8472 44.4171 45.5 44.4171C43.1528 44.4171 41.25 42.5143 41.25 40.1671C41.25 37.8199 43.1528 35.9171 45.5 35.9171ZM45.5 38.4171C44.5335 38.4171 43.75 39.2006 43.75 40.1671C43.75 41.1336 44.5335 41.9171 45.5 41.9171C46.4665 41.9171 47.25 41.1336 47.25 40.1671C47.25 39.2006 46.4665 38.4171 45.5 38.4171ZM28.5059 19.4171C26.9802 19.4171 25.7502 20.6475 25.75 22.1691V25.1652C25.7502 26.6847 26.9835 27.9171 28.5059 27.9171H62.4941C64.0197 27.9171 65.2498 26.6867 65.25 25.1652V22.1691C65.2498 20.6496 64.0165 19.4171 62.4941 19.4171H56.75V23.1671C56.75 23.8575 56.1904 24.4171 55.5 24.4171C54.8096 24.4171 54.25 23.8575 54.25 23.1671V19.4171H36.75V23.1671C36.75 23.8575 36.1904 24.4171 35.5 24.4171C34.8096 24.4171 34.25 23.8575 34.25 23.1671V19.4171H28.5059Z" fill="white" stroke="white" stroke-width="0.5"/>
</svg>
