<svg width="66" height="16" viewBox="0 0 66 16" fill="none" xmlns="http://www.w3.org/2000/svg">
<path d="M8.84 8.06C9.10667 8.00667 9.36 7.97333 9.6 7.96C9.84 7.93333 10.0733 7.92 10.3 7.92C10.5267 7.92 10.76 7.93333 11 7.96C11.2533 7.97333 11.5 8.00667 11.74 8.06L10.48 15.18C9.89333 15.38 9.23333 15.52 8.5 15.6C7.76667 15.6933 7.08 15.74 6.44 15.74C5.46667 15.74 4.61333 15.6 3.88 15.32C3.14667 15.04 2.53333 14.6533 2.04 14.16C1.54667 13.6667 1.17333 13.0867 0.92 12.42C0.68 11.74 0.56 11.0067 0.56 10.22C0.56 8.92667 0.753333 7.71333 1.14 6.58C1.52667 5.44667 2.06667 4.46 2.76 3.62C3.46667 2.76667 4.31333 2.1 5.3 1.62C6.28667 1.12667 7.38 0.88 8.58 0.88C9.20667 0.88 9.76667 0.92 10.26 1C10.7533 1.08 11.2533 1.23333 11.76 1.46C11.68 1.87333 11.5733 2.26 11.44 2.62C11.32 2.98 11.1467 3.37333 10.92 3.8C10.5067 3.62667 10.1267 3.51333 9.78 3.46C9.43333 3.40667 9.09333 3.38 8.76 3.38C7.86667 3.38 7.1 3.57333 6.46 3.96C5.83333 4.34667 5.31333 4.85333 4.9 5.48C4.5 6.09333 4.2 6.79333 4 7.58C3.81333 8.36667 3.72 9.16 3.72 9.96C3.72 11.12 4 11.9467 4.56 12.44C5.13333 12.9333 5.88667 13.18 6.82 13.18C7.00667 13.18 7.21333 13.1733 7.44 13.16C7.66667 13.1333 7.84 13.1067 7.96 13.08L8.84 8.06ZM17.2436 15.74C15.8703 15.74 14.8569 15.38 14.2036 14.66C13.5636 13.94 13.2436 12.9533 13.2436 11.7C13.2436 10.9 13.3636 10.1 13.6036 9.3C13.8436 8.48667 14.2036 7.76 14.6836 7.12C15.1636 6.46667 15.7636 5.94 16.4836 5.54C17.2169 5.12667 18.0703 4.92 19.0436 4.92C20.4303 4.92 21.4436 5.28667 22.0836 6.02C22.7369 6.75333 23.0636 7.74667 23.0636 9C23.0636 9.82667 22.9436 10.64 22.7036 11.44C22.4769 12.24 22.1236 12.96 21.6436 13.6C21.1636 14.24 20.5569 14.76 19.8236 15.16C19.0903 15.5467 18.2303 15.74 17.2436 15.74ZM17.5036 13.58C18.0103 13.58 18.4369 13.42 18.7836 13.1C19.1303 12.78 19.4103 12.3867 19.6236 11.92C19.8503 11.44 20.0103 10.94 20.1036 10.42C20.1969 9.88667 20.2436 9.40667 20.2436 8.98C20.2436 7.75333 19.7436 7.14 18.7436 7.14C18.2369 7.14 17.8169 7.30667 17.4836 7.64C17.1503 7.97333 16.8769 8.38 16.6636 8.86C16.4503 9.34 16.2969 9.84667 16.2036 10.38C16.1236 10.9133 16.0836 11.3867 16.0836 11.8C16.0836 12.9867 16.5569 13.58 17.5036 13.58ZM24.7759 5.16C25.2959 5.08 25.8426 5.04 26.4159 5.04C26.6426 5.04 26.8693 5.04667 27.0959 5.06C27.3359 5.07333 27.5693 5.10667 27.7959 5.16L28.0759 12.34L31.0559 5.16C31.4693 5.08 31.9226 5.04 32.4159 5.04C32.9093 5.04 33.3959 5.08 33.8759 5.16L34.4359 12.36L36.3759 7.86C36.6026 7.34 36.7559 6.88 36.8359 6.48C36.9159 6.08 36.9559 5.74667 36.9559 5.48C36.9559 5.41333 36.9493 5.35333 36.9359 5.3C36.9359 5.24667 36.9359 5.2 36.9359 5.16C37.3759 5.08 37.8826 5.04 38.4559 5.04C39.0026 5.04 39.5093 5.08 39.9759 5.16V5.24C39.9759 5.66667 39.9026 6.11333 39.7559 6.58C39.6093 7.04667 39.3693 7.6 39.0359 8.24L35.3159 15.5C35.0759 15.54 34.8026 15.5667 34.4959 15.58C34.2026 15.6067 33.9226 15.62 33.6559 15.62C33.1759 15.62 32.7159 15.58 32.2759 15.5L31.6959 8.92L28.8759 15.5C28.6226 15.5267 28.3559 15.5533 28.0759 15.58C27.7959 15.6067 27.5226 15.62 27.2559 15.62C27.0293 15.62 26.7893 15.6067 26.5359 15.58C26.2826 15.5667 26.0493 15.54 25.8359 15.5L24.7759 5.16ZM43.2692 11.58C43.3492 12.22 43.5626 12.7 43.9092 13.02C44.2559 13.3267 44.7626 13.48 45.4292 13.48C45.9626 13.48 46.4292 13.4267 46.8292 13.32C47.2426 13.2 47.6759 13.0467 48.1292 12.86C48.3426 13.1267 48.4826 13.4533 48.5492 13.84C48.6292 14.2133 48.6692 14.6133 48.6692 15.04C48.4426 15.1467 48.1759 15.2467 47.8692 15.34C47.5759 15.42 47.2692 15.4867 46.9492 15.54C46.6292 15.6067 46.3092 15.6533 45.9892 15.68C45.6692 15.72 45.3826 15.74 45.1292 15.74C44.3159 15.74 43.6159 15.64 43.0292 15.44C42.4559 15.24 41.9759 14.96 41.5892 14.6C41.2159 14.2267 40.9359 13.78 40.7492 13.26C40.5759 12.7267 40.4892 12.14 40.4892 11.5C40.4892 10.6867 40.6292 9.88667 40.9092 9.1C41.1892 8.31333 41.5826 7.61333 42.0892 7C42.6092 6.37333 43.2359 5.87333 43.9692 5.5C44.7159 5.11333 45.5492 4.92 46.4692 4.92C46.9092 4.92 47.3159 4.97333 47.6892 5.08C48.0759 5.18667 48.4092 5.35333 48.6892 5.58C48.9692 5.79333 49.1892 6.06 49.3492 6.38C49.5092 6.7 49.5892 7.07333 49.5892 7.5C49.5892 8.1 49.4492 8.62 49.1692 9.06C48.8892 9.5 48.5159 9.87333 48.0492 10.18C47.5826 10.4867 47.0492 10.74 46.4492 10.94C45.8626 11.1267 45.2492 11.2667 44.6092 11.36L43.2692 11.58ZM44.4092 9.54C44.9159 9.46 45.3292 9.36 45.6492 9.24C45.9692 9.10667 46.2226 8.96667 46.4092 8.82C46.5959 8.66 46.7226 8.5 46.7892 8.34C46.8559 8.18 46.8892 8.02 46.8892 7.86C46.8892 7.60667 46.8026 7.4 46.6292 7.24C46.4692 7.08 46.2492 7 45.9692 7C45.6226 7 45.3026 7.08 45.0092 7.24C44.7292 7.38667 44.4826 7.58667 44.2692 7.84C44.0559 8.09333 43.8692 8.38667 43.7092 8.72C43.5626 9.04 43.4492 9.36667 43.3692 9.7L44.4092 9.54ZM53.825 13.26C53.9317 13.3 54.065 13.3333 54.225 13.36C54.3983 13.3733 54.5717 13.38 54.745 13.38C55.3317 13.38 55.8317 13.2467 56.245 12.98C56.6717 12.7 57.0183 12.3533 57.285 11.94C57.565 11.5133 57.765 11.0467 57.885 10.54C58.0183 10.0333 58.085 9.54 58.085 9.06C58.085 8.59333 57.985 8.19333 57.785 7.86C57.5983 7.51333 57.2717 7.34 56.805 7.34C56.1917 7.34 55.665 7.6 55.225 8.12C54.785 8.64 54.465 9.5 54.265 10.7L53.825 13.26ZM52.505 4.76C52.745 3.36 52.865 2.3 52.865 1.58C52.865 1.43333 52.8583 1.31333 52.845 1.22C52.845 1.11333 52.8383 0.999999 52.825 0.88C53.0517 0.84 53.3117 0.813333 53.605 0.8C53.8983 0.773333 54.1517 0.759999 54.365 0.759999C54.7517 0.759999 55.1783 0.799999 55.645 0.88C55.7117 1.08 55.745 1.33333 55.745 1.64C55.745 2.22667 55.665 2.94 55.505 3.78L55.005 6.56C55.165 6.36 55.3383 6.16667 55.525 5.98C55.725 5.78 55.9517 5.6 56.205 5.44C56.4583 5.28 56.7517 5.15333 57.085 5.06C57.4183 4.96667 57.805 4.92 58.245 4.92C59.1783 4.92 59.8917 5.24 60.385 5.88C60.8917 6.52 61.145 7.44667 61.145 8.66C61.145 9.48667 61.025 10.32 60.785 11.16C60.545 12 60.1383 12.76 59.565 13.44C59.005 14.12 58.2583 14.6733 57.325 15.1C56.3917 15.5267 55.2383 15.74 53.865 15.74C53.2383 15.74 52.665 15.6867 52.145 15.58C51.625 15.4733 51.1317 15.3267 50.665 15.14L52.505 4.76Z" fill="white"/>
<path d="M62.8028 12.58C63.0695 12.5267 63.3228 12.4933 63.5628 12.48C63.8028 12.4533 64.0428 12.44 64.2828 12.44C64.5095 12.44 64.7428 12.4533 64.9828 12.48C65.2361 12.4933 65.4828 12.5267 65.7228 12.58C65.7228 13.1 65.6761 13.5933 65.5828 14.06C65.5028 14.5267 65.3828 15.0067 65.2228 15.5C64.9561 15.5533 64.7028 15.5867 64.4628 15.6C64.2228 15.6267 63.9828 15.64 63.7428 15.64C63.5161 15.64 63.2761 15.6267 63.0228 15.6C62.7828 15.5867 62.5428 15.5533 62.3028 15.5C62.3028 14.98 62.3428 14.4867 62.4228 14.02C62.5161 13.5533 62.6428 13.0733 62.8028 12.58Z" fill="#FF445F"/>
</svg>
