<svg width="82" height="81" viewBox="0 0 82 81" fill="none" xmlns="http://www.w3.org/2000/svg">
<path d="M67.458 0.25C69.8016 0.25 71.708 2.15636 71.708 4.5V4.91895H80C80.6903 4.91895 81.25 5.47863 81.25 6.16895C81.2497 6.85904 80.6902 7.41895 80 7.41895H71.708V30.001H80C80.6903 30.001 81.25 30.5607 81.25 31.251C81.2497 31.9411 80.6902 32.501 80 32.501H71.708V33.1768C71.708 35.5204 69.8016 37.4268 67.458 37.4268H62.3301C59.9864 37.4268 58.0801 35.5204 58.0801 33.1768V32.501H52.1934C42.1317 32.501 33.9453 40.6874 33.9453 50.749V58.3428C36.1639 58.482 37.9268 60.3286 37.9268 62.582V67.7109C37.9265 69.9642 36.1637 71.81 33.9453 71.9492V79.5C33.9453 80.1903 33.3856 80.75 32.6953 80.75C32.005 80.75 31.4453 80.1903 31.4453 79.5V71.9609H7.40625V79.5C7.40625 80.1902 6.84634 80.7497 6.15625 80.75C5.46593 80.75 4.90625 80.1903 4.90625 79.5V71.958C2.60591 71.908 0.750261 70.023 0.75 67.7109V62.582C0.75 60.2697 2.60574 58.384 4.90625 58.334V50.1895C4.90625 25.2267 25.215 4.91895 50.1777 4.91895H58.0801V4.5C58.0801 2.15636 59.9864 0.25 62.3301 0.25H67.458ZM5 60.832C4.03504 60.832 3.25 61.6171 3.25 62.582V67.7109C3.25026 68.6757 4.03521 69.4609 5 69.4609H33.6768C34.6416 69.4609 35.4265 68.6757 35.4268 67.7109V62.582C35.4268 61.6171 34.6417 60.832 33.6768 60.832H5ZM50.1777 7.41895C38.7892 7.41895 28.4348 11.9019 20.7617 19.1855L22.8633 25.7715L30.1338 22.0811L30.2656 22.0234C30.5776 21.9073 30.925 21.9197 31.2295 22.0635C31.5353 22.2063 31.7681 22.4658 31.8789 22.7793L31.9189 22.917L33.7559 30.9727L33.7783 31.0986C33.8507 31.6851 33.4986 32.2452 32.9385 32.4346L32.8154 32.4697C32.7215 32.4912 32.6276 32.501 32.5361 32.501C32.0014 32.5015 31.5154 32.1556 31.3477 31.6348L31.3184 31.5283L29.8369 25.0342L22.6855 28.667C22.3991 28.813 22.0703 28.8401 21.7666 28.751L21.6377 28.7061C21.342 28.5822 21.1065 28.3502 20.9775 28.0605L20.9287 27.9326L18.7783 21.1963C11.728 28.8251 7.40625 39.0085 7.40625 50.1895V58.332H31.4453V50.749C31.4453 39.3082 40.7526 30.001 52.1934 30.001H58.0801V7.41895H50.1777ZM62.3301 2.75C61.3651 2.75 60.5801 3.53504 60.5801 4.5V33.1768C60.5801 34.1417 61.3651 34.9268 62.3301 34.9268H67.458C68.423 34.9268 69.208 34.1417 69.208 33.1768V4.5C69.208 3.53504 68.423 2.75 67.458 2.75H62.3301Z" fill="white" stroke="white" stroke-width="0.5"/>
</svg>
