<svg width="89" height="90" viewBox="0 0 89 90" fill="none" xmlns="http://www.w3.org/2000/svg">
<path d="M15.1751 2.50959C15.1751 2.094 15.5111 1.75708 15.9256 1.75708C16.3401 1.75708 16.6761 2.094 16.6761 2.50959V87.8246C16.6761 88.2402 16.3401 88.5771 15.9256 88.5771C15.5111 88.5771 15.1751 88.2402 15.1751 87.8246V64.109L15.1561 64.1091H3.4585C3.04255 64.1091 2.66497 63.939 2.3917 63.6651C2.11846 63.3911 1.94882 63.0125 1.94882 62.5954V56.9187C1.94882 56.5017 2.11846 56.1231 2.3917 55.8491C2.66497 55.5751 3.04259 55.4051 3.4585 55.4051H15.1561L15.1751 55.4052V49.519L15.1561 49.5191H3.4585C3.04255 49.5191 2.66497 49.349 2.3917 49.0751C2.11846 48.801 1.94882 48.4225 1.94882 48.0054V42.3287C1.94882 41.9117 2.11846 41.5331 2.3917 41.2591C2.66497 40.9851 3.04255 40.815 3.4585 40.815H15.1561L15.1751 40.8152V34.929L15.1561 34.9291H3.4585C3.04255 34.9291 2.66497 34.7591 2.3917 34.4851C2.11846 34.2111 1.94882 33.8324 1.94882 33.4154V27.7388C1.94882 27.3217 2.11846 26.9431 2.3917 26.6691C2.66497 26.3952 3.04255 26.2251 3.4585 26.2251H15.1561L15.1751 26.2252V2.50959ZM28.8366 29.8311C28.8366 28.6191 29.164 27.4781 29.7598 26.4935C30.3579 25.5053 31.2237 24.6826 32.2974 24.1122C35.3225 22.5051 39.9654 23.9545 43.6344 25.0997C43.9386 25.1947 44.2356 25.2874 44.5269 25.3767V18.1166C44.5269 15.6161 43.5062 13.3424 41.8617 11.6935C40.2172 10.0446 37.9495 9.0212 35.4557 9.0212C32.9619 9.0212 30.6942 10.0446 29.0498 11.6935C27.4053 13.3424 26.3845 15.6161 26.3845 18.1166V74.5371C26.3845 77.0376 27.4053 79.3113 29.0498 80.9602C30.6943 82.6091 32.9619 83.6325 35.4557 83.6325C37.9495 83.6325 40.2172 82.6091 41.8617 80.9602C43.5062 79.3113 44.5269 77.0376 44.5269 74.5371V37.9232C39.9994 37.7966 36.0299 37.1965 33.2412 35.8949C30.4837 34.608 28.8366 32.654 28.8366 29.8311ZM46.0279 25.8146C51.1535 27.2339 56.141 27.9405 61.6568 27.8489C67.3921 27.7536 73.7178 26.7967 81.3795 24.8826C83.9854 24.2316 85.844 24.6862 86.9216 25.6208C87.4082 26.0429 87.7383 26.5627 87.9115 27.1299C88.0831 27.6922 88.0966 28.294 87.952 28.8863C87.6323 30.1944 86.5404 31.4625 84.6816 32.104C81.7877 33.1028 73.5422 35.0634 64.2914 36.436C58.2479 37.3327 51.7595 37.9804 46.0279 37.948V74.5371C46.0279 77.453 44.8388 80.1033 42.9229 82.0243C41.0071 83.9452 38.3639 85.1375 35.4557 85.1375C32.5476 85.1375 29.9043 83.9452 27.9885 82.0243C26.0727 80.1033 24.8835 77.453 24.8835 74.5371V18.1166C24.8835 15.2007 26.0727 12.5504 27.9885 10.6294C29.9043 8.7085 32.5476 7.5162 35.4557 7.5162C38.3639 7.5162 41.0071 8.7085 42.9229 10.6294C44.8388 12.5504 46.0279 15.2007 46.0279 18.1166V25.8146ZM31.0381 27.2695C30.586 28.0165 30.3377 28.8919 30.3377 29.8311C30.3377 31.9786 31.6603 33.4976 33.8744 34.531C36.6308 35.8174 40.7037 36.3703 45.3665 36.4419C51.1572 36.5308 57.8449 35.873 64.0745 34.9486C73.228 33.5904 81.3556 31.6613 84.195 30.6813C85.5254 30.2221 86.2909 29.3807 86.4978 28.5336C86.5792 28.2006 86.5735 27.8687 86.4808 27.565C86.3897 27.2663 86.2102 26.9877 85.9424 26.7554C85.1985 26.1103 83.8075 25.8234 81.7372 26.3406C73.972 28.2805 67.5394 29.2507 61.6803 29.348C55.7997 29.4457 50.5159 28.6657 45.0652 27.1054C44.5049 26.9451 43.8635 26.7448 43.1888 26.5342C39.7823 25.4709 35.4716 24.1253 32.9951 25.4409C32.1624 25.8833 31.4948 26.5149 31.0381 27.2695ZM34.7052 57.4229C34.7052 57.0073 35.0412 56.6704 35.4557 56.6704C35.8702 56.6704 36.2062 57.0073 36.2062 57.4229V61.4517C36.2062 61.8673 35.8702 62.2042 35.4557 62.2042C35.0412 62.2042 34.7052 61.8673 34.7052 61.4517V57.4229ZM35.4557 52.8006C37.2834 52.8006 38.9382 53.5434 40.136 54.7445C41.3339 55.9455 42.0748 57.6047 42.0748 59.4373C42.0748 61.2699 41.3339 62.9291 40.136 64.1301C40.0861 64.1802 40.0353 64.2294 39.9838 64.2778V72.4077C39.9838 73.657 39.4746 74.7922 38.6543 75.6147C37.8339 76.4372 36.7017 76.9478 35.4557 76.9478C34.2097 76.9478 33.0775 76.4372 32.2572 75.6147C31.4368 74.7922 30.9276 73.657 30.9276 72.4077V64.2778C30.8761 64.2294 30.8253 64.1802 30.7754 64.1301C29.5775 62.9291 28.8366 61.2699 28.8366 59.4373C28.8366 57.6047 29.5775 55.9455 30.7754 54.7445C31.9732 53.5434 33.628 52.8006 35.4557 52.8006ZM38.4828 65.3407C37.6614 65.7651 36.74 66.022 35.7634 66.0668L35.7379 66.068C35.723 66.0686 35.708 66.0692 35.693 66.0697C35.6737 66.0704 35.6544 66.0711 35.635 66.0716L35.6168 66.072C35.5938 66.0726 35.5708 66.073 35.5477 66.0734L35.5374 66.0735C35.5102 66.0738 35.483 66.074 35.4557 66.074C35.4285 66.074 35.4012 66.0738 35.374 66.0735L35.3638 66.0734C35.3407 66.073 35.3176 66.0726 35.2946 66.072L35.2764 66.0716C35.2571 66.0711 35.2378 66.0704 35.2184 66.0697C35.2035 66.0692 35.1885 66.0686 35.1735 66.068L35.148 66.0668C34.1715 66.022 33.25 65.7651 32.4286 65.3407V72.4077C32.4286 73.2415 32.7694 74.0002 33.3184 74.5506C33.8674 75.1011 34.624 75.4428 35.4557 75.4428C36.2874 75.4428 37.044 75.1011 37.593 74.5506C38.142 74.0002 38.4828 73.2415 38.4828 72.4077V65.3407ZM39.0748 55.8086C38.1487 54.88 36.8691 54.3056 35.4557 54.3056C34.0423 54.3056 32.7628 54.88 31.8366 55.8086C30.9105 56.7372 30.3377 58.0201 30.3377 59.4373C30.3377 60.8545 30.9105 62.1374 31.8366 63.066C32.7477 63.9795 34.0006 64.5501 35.3866 64.5685L35.3918 64.5686C35.4131 64.5689 35.4344 64.569 35.4557 64.569C35.4771 64.569 35.4984 64.5689 35.5197 64.5686L35.5248 64.5685C36.9108 64.5502 38.1638 63.9794 39.0748 63.066C40.0009 62.1374 40.5738 60.8545 40.5738 59.4373C40.5738 58.0201 40.0009 56.7372 39.0748 55.8086ZM15.1561 56.9101H3.4585C3.4585 56.9101 3.45486 56.9113 3.45295 56.9132C3.45105 56.9151 3.44983 56.9187 3.44983 56.9187V62.5954C3.44983 62.5954 3.45104 62.5991 3.45295 62.601C3.45486 62.6029 3.4585 62.6041 3.4585 62.6041H15.1561C15.1561 62.6041 15.1598 62.6029 15.1617 62.601C15.1636 62.5991 15.1648 62.5954 15.1648 62.5954V56.9187C15.1648 56.9187 15.1635 56.9151 15.1617 56.9132C15.1598 56.9113 15.1561 56.9101 15.1561 56.9101ZM15.1561 42.3201H3.4585C3.4585 42.3201 3.45486 42.3213 3.45295 42.3232C3.45104 42.3251 3.44983 42.3287 3.44983 42.3287V48.0054C3.44983 48.0054 3.45104 48.009 3.45295 48.011C3.45486 48.0129 3.4585 48.0141 3.4585 48.0141H15.1561C15.1561 48.0141 15.1598 48.0129 15.1617 48.011C15.1636 48.009 15.1648 48.0054 15.1648 48.0054V42.3287C15.1648 42.3287 15.1636 42.3251 15.1617 42.3232C15.1598 42.3213 15.1561 42.3201 15.1561 42.3201ZM15.1561 27.7301H3.4585C3.4585 27.7301 3.45486 27.7313 3.45295 27.7332C3.45104 27.7351 3.44983 27.7388 3.44983 27.7388V33.4154C3.44983 33.4154 3.45105 33.4191 3.45295 33.421C3.45486 33.4229 3.4585 33.4241 3.4585 33.4241H15.1561C15.1561 33.4241 15.1598 33.4229 15.1617 33.421C15.1635 33.4191 15.1648 33.4154 15.1648 33.4154V27.7388C15.1648 27.7388 15.1636 27.7351 15.1617 27.7332C15.1598 27.7313 15.1561 27.7301 15.1561 27.7301Z" fill="#FF445F"/>
<mask id="mask0_2_145" style="mask-type:luminance" maskUnits="userSpaceOnUse" x="0" y="0" width="89" height="90">
<path d="M88.9488 0.75708H0.948822V89.7571H88.9488V0.75708Z" fill="white"/>
<path d="M15.1751 2.50959C15.1751 2.094 15.5111 1.75708 15.9256 1.75708C16.3401 1.75708 16.6761 2.094 16.6761 2.50959V87.8246C16.6761 88.2402 16.3401 88.5771 15.9256 88.5771C15.5111 88.5771 15.1751 88.2402 15.1751 87.8246V64.109L15.1561 64.1091H3.4585C3.04255 64.1091 2.66497 63.939 2.3917 63.6651C2.11846 63.3911 1.94882 63.0125 1.94882 62.5954V56.9187C1.94882 56.5017 2.11846 56.1231 2.3917 55.8491C2.66497 55.5751 3.04259 55.4051 3.4585 55.4051H15.1561L15.1751 55.4052V49.519L15.1561 49.5191H3.4585C3.04255 49.5191 2.66497 49.349 2.3917 49.0751C2.11846 48.801 1.94882 48.4225 1.94882 48.0054V42.3287C1.94882 41.9117 2.11846 41.5331 2.3917 41.2591C2.66497 40.9851 3.04255 40.815 3.4585 40.815H15.1561L15.1751 40.8152V34.929L15.1561 34.9291H3.4585C3.04255 34.9291 2.66497 34.7591 2.3917 34.4851C2.11846 34.2111 1.94882 33.8324 1.94882 33.4154V27.7388C1.94882 27.3217 2.11846 26.9431 2.3917 26.6691C2.66497 26.3952 3.04255 26.2251 3.4585 26.2251H15.1561L15.1751 26.2252V2.50959ZM28.8366 29.8311C28.8366 28.6191 29.164 27.4781 29.7598 26.4935C30.3579 25.5053 31.2237 24.6826 32.2974 24.1122C35.3225 22.5051 39.9654 23.9545 43.6344 25.0997C43.9386 25.1947 44.2356 25.2874 44.5269 25.3767V18.1166C44.5269 15.6161 43.5062 13.3424 41.8617 11.6935C40.2172 10.0446 37.9495 9.0212 35.4557 9.0212C32.9619 9.0212 30.6942 10.0446 29.0498 11.6935C27.4053 13.3424 26.3845 15.6161 26.3845 18.1166V74.5371C26.3845 77.0376 27.4053 79.3113 29.0498 80.9602C30.6943 82.6091 32.9619 83.6325 35.4557 83.6325C37.9495 83.6325 40.2172 82.6091 41.8617 80.9602C43.5062 79.3113 44.5269 77.0376 44.5269 74.5371V37.9232C39.9994 37.7966 36.0299 37.1965 33.2412 35.8949C30.4837 34.608 28.8366 32.654 28.8366 29.8311ZM46.0279 25.8146C51.1535 27.2339 56.141 27.9405 61.6568 27.8489C67.3921 27.7536 73.7178 26.7967 81.3795 24.8826C83.9854 24.2316 85.844 24.6862 86.9216 25.6208C87.4082 26.0429 87.7383 26.5627 87.9115 27.1299C88.0831 27.6922 88.0966 28.294 87.952 28.8863C87.6323 30.1944 86.5404 31.4625 84.6816 32.104C81.7877 33.1028 73.5422 35.0634 64.2914 36.436C58.2479 37.3327 51.7595 37.9804 46.0279 37.948V74.5371C46.0279 77.453 44.8388 80.1033 42.9229 82.0243C41.0071 83.9452 38.3639 85.1375 35.4557 85.1375C32.5476 85.1375 29.9043 83.9452 27.9885 82.0243C26.0727 80.1033 24.8835 77.453 24.8835 74.5371V18.1166C24.8835 15.2007 26.0727 12.5504 27.9885 10.6294C29.9043 8.7085 32.5476 7.5162 35.4557 7.5162C38.3639 7.5162 41.0071 8.7085 42.9229 10.6294C44.8388 12.5504 46.0279 15.2007 46.0279 18.1166V25.8146ZM31.0381 27.2695C30.586 28.0165 30.3377 28.8919 30.3377 29.8311C30.3377 31.9786 31.6603 33.4976 33.8744 34.531C36.6308 35.8174 40.7037 36.3703 45.3665 36.4419C51.1572 36.5308 57.8449 35.873 64.0745 34.9486C73.228 33.5904 81.3556 31.6613 84.195 30.6813C85.5254 30.2221 86.2909 29.3807 86.4978 28.5336C86.5792 28.2006 86.5735 27.8687 86.4808 27.565C86.3897 27.2663 86.2102 26.9877 85.9424 26.7554C85.1985 26.1103 83.8075 25.8234 81.7372 26.3406C73.972 28.2805 67.5394 29.2507 61.6803 29.348C55.7997 29.4457 50.5159 28.6657 45.0652 27.1054C44.5049 26.9451 43.8635 26.7448 43.1888 26.5342C39.7823 25.4709 35.4716 24.1253 32.9951 25.4409C32.1624 25.8833 31.4948 26.5149 31.0381 27.2695ZM34.7052 57.4229C34.7052 57.0073 35.0412 56.6704 35.4557 56.6704C35.8702 56.6704 36.2062 57.0073 36.2062 57.4229V61.4517C36.2062 61.8673 35.8702 62.2042 35.4557 62.2042C35.0412 62.2042 34.7052 61.8673 34.7052 61.4517V57.4229ZM35.4557 52.8006C37.2834 52.8006 38.9382 53.5434 40.136 54.7445C41.3339 55.9455 42.0748 57.6047 42.0748 59.4373C42.0748 61.2699 41.3339 62.9291 40.136 64.1301C40.0861 64.1802 40.0353 64.2294 39.9838 64.2778V72.4077C39.9838 73.657 39.4746 74.7922 38.6543 75.6147C37.8339 76.4372 36.7017 76.9478 35.4557 76.9478C34.2097 76.9478 33.0775 76.4372 32.2572 75.6147C31.4368 74.7922 30.9276 73.657 30.9276 72.4077V64.2778C30.8761 64.2294 30.8253 64.1802 30.7754 64.1301C29.5775 62.9291 28.8366 61.2699 28.8366 59.4373C28.8366 57.6047 29.5775 55.9455 30.7754 54.7445C31.9732 53.5434 33.628 52.8006 35.4557 52.8006ZM38.4828 65.3407C37.6614 65.7651 36.74 66.022 35.7634 66.0668L35.7379 66.068C35.723 66.0686 35.708 66.0692 35.693 66.0697C35.6737 66.0704 35.6544 66.0711 35.635 66.0716L35.6168 66.072C35.5938 66.0726 35.5708 66.073 35.5477 66.0734L35.5374 66.0735C35.5102 66.0738 35.483 66.074 35.4557 66.074C35.4285 66.074 35.4012 66.0738 35.374 66.0735L35.3638 66.0734C35.3407 66.073 35.3176 66.0726 35.2946 66.072L35.2764 66.0716C35.2571 66.0711 35.2378 66.0704 35.2184 66.0697C35.2035 66.0692 35.1885 66.0686 35.1735 66.068L35.148 66.0668C34.1715 66.022 33.25 65.7651 32.4286 65.3407V72.4077C32.4286 73.2415 32.7694 74.0002 33.3184 74.5506C33.8674 75.1011 34.624 75.4428 35.4557 75.4428C36.2874 75.4428 37.044 75.1011 37.593 74.5506C38.142 74.0002 38.4828 73.2415 38.4828 72.4077V65.3407ZM39.0748 55.8086C38.1487 54.88 36.8691 54.3056 35.4557 54.3056C34.0423 54.3056 32.7628 54.88 31.8366 55.8086C30.9105 56.7372 30.3377 58.0201 30.3377 59.4373C30.3377 60.8545 30.9105 62.1374 31.8366 63.066C32.7477 63.9795 34.0006 64.5501 35.3866 64.5685L35.3918 64.5686C35.4131 64.5689 35.4344 64.569 35.4557 64.569C35.4771 64.569 35.4984 64.5689 35.5197 64.5686L35.5248 64.5685C36.9108 64.5502 38.1638 63.9794 39.0748 63.066C40.0009 62.1374 40.5738 60.8545 40.5738 59.4373C40.5738 58.0201 40.0009 56.7372 39.0748 55.8086ZM15.1561 56.9101H3.4585C3.4585 56.9101 3.45486 56.9113 3.45295 56.9132C3.45105 56.9151 3.44983 56.9187 3.44983 56.9187V62.5954C3.44983 62.5954 3.45104 62.5991 3.45295 62.601C3.45486 62.6029 3.4585 62.6041 3.4585 62.6041H15.1561C15.1561 62.6041 15.1598 62.6029 15.1617 62.601C15.1636 62.5991 15.1648 62.5954 15.1648 62.5954V56.9187C15.1648 56.9187 15.1635 56.9151 15.1617 56.9132C15.1598 56.9113 15.1561 56.9101 15.1561 56.9101ZM15.1561 42.3201H3.4585C3.4585 42.3201 3.45486 42.3213 3.45295 42.3232C3.45104 42.3251 3.44983 42.3287 3.44983 42.3287V48.0054C3.44983 48.0054 3.45104 48.009 3.45295 48.011C3.45486 48.0129 3.4585 48.0141 3.4585 48.0141H15.1561C15.1561 48.0141 15.1598 48.0129 15.1617 48.011C15.1636 48.009 15.1648 48.0054 15.1648 48.0054V42.3287C15.1648 42.3287 15.1636 42.3251 15.1617 42.3232C15.1598 42.3213 15.1561 42.3201 15.1561 42.3201ZM15.1561 27.7301H3.4585C3.4585 27.7301 3.45486 27.7313 3.45295 27.7332C3.45104 27.7351 3.44983 27.7388 3.44983 27.7388V33.4154C3.44983 33.4154 3.45105 33.4191 3.45295 33.421C3.45486 33.4229 3.4585 33.4241 3.4585 33.4241H15.1561C15.1561 33.4241 15.1598 33.4229 15.1617 33.421C15.1635 33.4191 15.1648 33.4154 15.1648 33.4154V27.7388C15.1648 27.7388 15.1636 27.7351 15.1617 27.7332C15.1598 27.7313 15.1561 27.7301 15.1561 27.7301Z" fill="black"/>
</mask>
<g mask="url(#mask0_2_145)">
<path d="M15.1751 2.50959C15.1751 2.094 15.5111 1.75708 15.9256 1.75708C16.3401 1.75708 16.6761 2.094 16.6761 2.50959V87.8246C16.6761 88.2402 16.3401 88.5771 15.9256 88.5771C15.5111 88.5771 15.1751 88.2402 15.1751 87.8246V64.109L15.1561 64.1091H3.4585C3.04255 64.1091 2.66497 63.939 2.3917 63.6651C2.11846 63.3911 1.94882 63.0125 1.94882 62.5954V56.9187C1.94882 56.5017 2.11846 56.1231 2.3917 55.8491C2.66497 55.5751 3.04259 55.4051 3.4585 55.4051H15.1561L15.1751 55.4052V49.519L15.1561 49.5191H3.4585C3.04255 49.5191 2.66497 49.349 2.3917 49.0751C2.11846 48.801 1.94882 48.4225 1.94882 48.0054V42.3287C1.94882 41.9117 2.11846 41.5331 2.3917 41.2591C2.66497 40.9851 3.04255 40.815 3.4585 40.815H15.1561L15.1751 40.8152V34.929L15.1561 34.9291H3.4585C3.04255 34.9291 2.66497 34.7591 2.3917 34.4851C2.11846 34.2111 1.94882 33.8324 1.94882 33.4154V27.7388C1.94882 27.3217 2.11846 26.9431 2.3917 26.6691C2.66497 26.3952 3.04255 26.2251 3.4585 26.2251H15.1561L15.1751 26.2252V2.50959ZM28.8366 29.8311C28.8366 28.6191 29.164 27.4781 29.7598 26.4935C30.3579 25.5053 31.2237 24.6826 32.2974 24.1122C35.3225 22.5051 39.9654 23.9545 43.6344 25.0997C43.9386 25.1947 44.2356 25.2874 44.5269 25.3767V18.1166C44.5269 15.6161 43.5062 13.3424 41.8617 11.6935C40.2172 10.0446 37.9495 9.0212 35.4557 9.0212C32.9619 9.0212 30.6942 10.0446 29.0498 11.6935C27.4053 13.3424 26.3845 15.6161 26.3845 18.1166V74.5371C26.3845 77.0376 27.4053 79.3113 29.0498 80.9602C30.6943 82.6091 32.9619 83.6325 35.4557 83.6325C37.9495 83.6325 40.2172 82.6091 41.8617 80.9602C43.5062 79.3113 44.5269 77.0376 44.5269 74.5371V37.9232C39.9994 37.7966 36.0299 37.1965 33.2412 35.8949C30.4837 34.608 28.8366 32.654 28.8366 29.8311ZM46.0279 25.8146C51.1535 27.2339 56.141 27.9405 61.6568 27.8489C67.3921 27.7536 73.7178 26.7967 81.3795 24.8826C83.9854 24.2316 85.844 24.6862 86.9216 25.6208C87.4082 26.0429 87.7383 26.5627 87.9115 27.1299C88.0831 27.6922 88.0966 28.294 87.952 28.8863C87.6323 30.1944 86.5404 31.4625 84.6816 32.104C81.7877 33.1028 73.5422 35.0634 64.2914 36.436C58.2479 37.3327 51.7595 37.9804 46.0279 37.948V74.5371C46.0279 77.453 44.8388 80.1033 42.9229 82.0243C41.0071 83.9452 38.3639 85.1375 35.4557 85.1375C32.5476 85.1375 29.9043 83.9452 27.9885 82.0243C26.0727 80.1033 24.8835 77.453 24.8835 74.5371V18.1166C24.8835 15.2007 26.0727 12.5504 27.9885 10.6294C29.9043 8.7085 32.5476 7.5162 35.4557 7.5162C38.3639 7.5162 41.0071 8.7085 42.9229 10.6294C44.8388 12.5504 46.0279 15.2007 46.0279 18.1166V25.8146ZM31.0381 27.2695C30.586 28.0165 30.3377 28.8919 30.3377 29.8311C30.3377 31.9786 31.6603 33.4976 33.8744 34.531C36.6308 35.8174 40.7037 36.3703 45.3665 36.4419C51.1572 36.5308 57.8449 35.873 64.0745 34.9486C73.228 33.5904 81.3556 31.6613 84.195 30.6813C85.5254 30.2221 86.2909 29.3807 86.4978 28.5336C86.5792 28.2006 86.5735 27.8687 86.4808 27.565C86.3897 27.2663 86.2102 26.9877 85.9424 26.7554C85.1985 26.1103 83.8075 25.8234 81.7372 26.3406C73.972 28.2805 67.5394 29.2507 61.6803 29.348C55.7997 29.4457 50.5159 28.6657 45.0652 27.1054C44.5049 26.9451 43.8635 26.7448 43.1888 26.5342C39.7823 25.4709 35.4716 24.1253 32.9951 25.4409C32.1624 25.8833 31.4948 26.5149 31.0381 27.2695ZM34.7052 57.4229C34.7052 57.0073 35.0412 56.6704 35.4557 56.6704C35.8702 56.6704 36.2062 57.0073 36.2062 57.4229V61.4517C36.2062 61.8673 35.8702 62.2042 35.4557 62.2042C35.0412 62.2042 34.7052 61.8673 34.7052 61.4517V57.4229ZM35.4557 52.8006C37.2834 52.8006 38.9382 53.5434 40.136 54.7445C41.3339 55.9455 42.0748 57.6047 42.0748 59.4373C42.0748 61.2699 41.3339 62.9291 40.136 64.1301C40.0861 64.1802 40.0353 64.2294 39.9838 64.2778V72.4077C39.9838 73.657 39.4746 74.7922 38.6543 75.6147C37.8339 76.4372 36.7017 76.9478 35.4557 76.9478C34.2097 76.9478 33.0775 76.4372 32.2572 75.6147C31.4368 74.7922 30.9276 73.657 30.9276 72.4077V64.2778C30.8761 64.2294 30.8253 64.1802 30.7754 64.1301C29.5775 62.9291 28.8366 61.2699 28.8366 59.4373C28.8366 57.6047 29.5775 55.9455 30.7754 54.7445C31.9732 53.5434 33.628 52.8006 35.4557 52.8006ZM38.4828 65.3407C37.6614 65.7651 36.74 66.022 35.7634 66.0668L35.7379 66.068C35.723 66.0686 35.708 66.0692 35.693 66.0697C35.6737 66.0704 35.6544 66.0711 35.635 66.0716L35.6168 66.072C35.5938 66.0726 35.5708 66.073 35.5477 66.0734L35.5374 66.0735C35.5102 66.0738 35.483 66.074 35.4557 66.074C35.4285 66.074 35.4012 66.0738 35.374 66.0735L35.3638 66.0734C35.3407 66.073 35.3176 66.0726 35.2946 66.072L35.2764 66.0716C35.2571 66.0711 35.2378 66.0704 35.2184 66.0697C35.2035 66.0692 35.1885 66.0686 35.1735 66.068L35.148 66.0668C34.1715 66.022 33.25 65.7651 32.4286 65.3407V72.4077C32.4286 73.2415 32.7694 74.0002 33.3184 74.5506C33.8674 75.1011 34.624 75.4428 35.4557 75.4428C36.2874 75.4428 37.044 75.1011 37.593 74.5506C38.142 74.0002 38.4828 73.2415 38.4828 72.4077V65.3407ZM39.0748 55.8086C38.1487 54.88 36.8691 54.3056 35.4557 54.3056C34.0423 54.3056 32.7628 54.88 31.8366 55.8086C30.9105 56.7372 30.3377 58.0201 30.3377 59.4373C30.3377 60.8545 30.9105 62.1374 31.8366 63.066C32.7477 63.9795 34.0006 64.5501 35.3866 64.5685L35.3918 64.5686C35.4131 64.5689 35.4344 64.569 35.4557 64.569C35.4771 64.569 35.4984 64.5689 35.5197 64.5686L35.5248 64.5685C36.9108 64.5502 38.1638 63.9794 39.0748 63.066C40.0009 62.1374 40.5738 60.8545 40.5738 59.4373C40.5738 58.0201 40.0009 56.7372 39.0748 55.8086ZM15.1561 56.9101H3.4585C3.4585 56.9101 3.45486 56.9113 3.45295 56.9132C3.45105 56.9151 3.44983 56.9187 3.44983 56.9187V62.5954C3.44983 62.5954 3.45104 62.5991 3.45295 62.601C3.45486 62.6029 3.4585 62.6041 3.4585 62.6041H15.1561C15.1561 62.6041 15.1598 62.6029 15.1617 62.601C15.1636 62.5991 15.1648 62.5954 15.1648 62.5954V56.9187C15.1648 56.9187 15.1635 56.9151 15.1617 56.9132C15.1598 56.9113 15.1561 56.9101 15.1561 56.9101ZM15.1561 42.3201H3.4585C3.4585 42.3201 3.45486 42.3213 3.45295 42.3232C3.45104 42.3251 3.44983 42.3287 3.44983 42.3287V48.0054C3.44983 48.0054 3.45104 48.009 3.45295 48.011C3.45486 48.0129 3.4585 48.0141 3.4585 48.0141H15.1561C15.1561 48.0141 15.1598 48.0129 15.1617 48.011C15.1636 48.009 15.1648 48.0054 15.1648 48.0054V42.3287C15.1648 42.3287 15.1636 42.3251 15.1617 42.3232C15.1598 42.3213 15.1561 42.3201 15.1561 42.3201ZM15.1561 27.7301H3.4585C3.4585 27.7301 3.45486 27.7313 3.45295 27.7332C3.45104 27.7351 3.44983 27.7388 3.44983 27.7388V33.4154C3.44983 33.4154 3.45105 33.4191 3.45295 33.421C3.45486 33.4229 3.4585 33.4241 3.4585 33.4241H15.1561C15.1561 33.4241 15.1598 33.4229 15.1617 33.421C15.1635 33.4191 15.1648 33.4154 15.1648 33.4154V27.7388C15.1648 27.7388 15.1636 27.7351 15.1617 27.7332C15.1598 27.7313 15.1561 27.7301 15.1561 27.7301Z" stroke="#FF445F" stroke-width="1.2"/>
</g>
</svg>
