<svg width="92" height="64" viewBox="0 0 92 64" fill="none" xmlns="http://www.w3.org/2000/svg">
<path d="M41.1841 0.650757H28.6797C28.0728 0.650757 27.5259 1.01648 27.2939 1.57703C27.0615 2.13757 27.1904 2.78308 27.6196 3.21179L41.124 16.7035C41.4106 16.9901 41.7944 17.1425 42.1846 17.1425C42.3779 17.1425 42.5728 17.1049 42.7583 17.0282C43.3188 16.7958 43.6841 16.2489 43.6841 15.6425V3.15076C43.6841 1.77234 42.5625 0.650757 41.1841 0.650757ZM40.6841 12.0233L32.3032 3.65076H40.6841V12.0233ZM42.8911 22.1097C42.4028 21.849 41.8115 21.8778 41.3506 22.1854L38.3306 24.203L35.564 20.8895C35.3789 20.6683 35.1343 20.5048 34.8589 20.4188L30.1543 18.953C30.3813 17.0624 30.6484 15.1615 30.7959 14.5673C30.8911 14.4017 30.9556 14.2177 30.9819 14.0238C31.1265 12.9652 31.1416 12.8505 24.459 8.35388L23.9888 2.03943C23.9302 1.25623 23.2778 0.650757 22.4927 0.650757H2.5C1.12158 0.650757 0 1.77234 0 3.15076V61.1835C0 62.5624 1.12158 63.6835 2.5 63.6835H41.1841C42.5625 63.6835 43.6841 62.5624 43.6841 61.1835V23.4325C43.6841 22.8793 43.3794 22.3705 42.8911 22.1097ZM40.6841 60.6835H3V3.65076H21.1001L21.521 9.30359C21.5552 9.76257 21.7983 10.1805 22.1807 10.4374C24.3174 11.8729 26.6709 13.4999 27.7783 14.3226C27.562 15.3744 27.3394 17.0687 27.0303 19.8495C26.9507 20.5634 27.3887 21.2333 28.0747 21.4471L33.5444 23.1517L36.8916 27.1605C37.3823 27.7484 38.2368 27.8724 38.8765 27.4462L40.6841 26.2386V60.6835ZM89.5 1.56482H52.0879C50.709 1.56482 49.5879 2.6864 49.5879 4.06482V61.1835C49.5879 62.5624 50.709 63.6835 52.0879 63.6835H89.5C90.8789 63.6835 92 62.5624 92 61.1835V4.06482C92 2.6864 90.8789 1.56482 89.5 1.56482ZM89 60.6835H52.5879V4.56482H89V60.6835ZM55.8926 13.0507C55.3066 12.4652 55.3066 11.5155 55.8926 10.9296L58.5352 8.2865C59.1211 7.70056 60.0703 7.70056 60.6562 8.2865C61.2422 8.87195 61.2422 9.82166 60.6562 10.4076L58.0137 13.0507C57.7207 13.3436 57.3369 13.4901 56.9531 13.4901C56.5693 13.4901 56.1855 13.3436 55.8926 13.0507ZM56.7139 17.4945L64.8369 9.37146C65.4229 8.78552 66.3721 8.78552 66.958 9.37146C67.5439 9.95691 67.5439 10.9071 66.958 11.4926L58.835 19.6156C58.542 19.9086 58.1582 20.0551 57.7744 20.0551C57.3906 20.0551 57.0068 19.9086 56.7139 19.6156C56.1279 19.0302 56.1279 18.08 56.7139 17.4945ZM74.6299 50.3973C74.0439 49.8124 74.0439 48.8622 74.6299 48.2762L77.2725 45.6327C77.8584 45.0468 78.8076 45.0468 79.3936 45.6327C79.9795 46.2177 79.9795 47.1678 79.3936 47.7538L76.751 50.3973C76.458 50.6903 76.0742 50.8368 75.6904 50.8368C75.3066 50.8368 74.9229 50.6903 74.6299 50.3973ZM75.4512 54.8407L83.5742 46.7177C84.1602 46.1317 85.1094 46.1317 85.6953 46.7177C86.2812 47.3036 86.2812 48.2528 85.6953 48.8387L77.5723 56.9618C77.2793 57.2548 76.8955 57.4012 76.5117 57.4012C76.1279 57.4012 75.7441 57.2548 75.4512 56.9618C74.8652 56.3759 74.8652 55.4266 75.4512 54.8407Z" fill="#FF445F"/>
</svg>
